# xmcd
#
# Track frame offsets:
#	150
#	24768
#	42842
#	59595
#	76821
#	95879
#	110429
#	127665
#	146006
#	161909
#	176759
#	192213
#	204155
#	220479
#	235706
#	253860
#	269564
#	286199
#	298885
#	318008
#
# Disc length: 4442 seconds
#
# Revision: 0
# Processed by: cddbd v1.5.2PL0 Copyright (c) Steve Scherf et al.
# Submitted via: EZCDAudioConverter 3.1.0.1
#
DISCID=27115814
DTITLE=Nu Urban Traxx Volume 228 US
DYEAR=2016
DGENRE=blues
TTITLE0=DJ Khaled ft. Nicki Minaj, Chris Brown, August Alsina, Jeremih, Future
TTITLE0=and Rick Ross - Do You Mind
TTITLE1=Desiigner - Tiimmy Turner
TTITLE2=Beyonce - Hold Up
TTITLE3=Dreezy ft. T-Pain - Close To You
TTITLE4=TWENTY88 - Deja Vu
TTITLE5=Kehlani - Crzy
TTITLE6=French Montana ft. Drake - No Shopping
TTITLE7=Fantasia - Sleeping With The One I Love
TTITLE8=June's Diary - L.A.N.C.E.
TTITLE9=Trap Beckham - Birthday Chick
TTITLE10=Ayo Jay - Your Number
TTITLE11=Kamaiyah - How Does It Feel
TTITLE12=Wash ft. Kevin Gates - Where You Been
TTITLE13=Lotto Savage - Trapped It Out
TTITLE14=Maxwell - 1990x
TTITLE15=Jidenna - Little Bit More
TTITLE16=DJ Luke Nasty - OTW
TTITLE17=Kool and the Gang - Sexy (Where'd You Get Yours)
TTITLE18=Pusha T ft. Jay Z - Drug Dealers Anonymous
TTITLE19=Belly ft. Kehlani - You
EXTD=
EXTT0=
EXTT1=
EXTT2=
EXTT3=
EXTT4=
EXTT5=
EXTT6=
EXTT7=
EXTT8=
EXTT9=
EXTT10=
EXTT11=
EXTT12=
EXTT13=
EXTT14=
EXTT15=
EXTT16=
EXTT17=
EXTT18=
EXTT19=
PLAYORDER=
